<mxfile host="65bd71144e">
    <diagram id="t1FNvWeEGOtoN3aaMuMN" name="Page-1">
        <mxGraphModel dx="1552" dy="582" grid="1" gridSize="10" guides="1" tooltips="1" connect="1" arrows="1" fold="1" page="1" pageScale="1" pageWidth="850" pageHeight="1100" background="#ffffff" math="0" shadow="0">
            <root>
                <mxCell id="0"/>
                <mxCell id="1" parent="0"/>
                <mxCell id="3" value="" style="image;html=1;image=img/lib/clip_art/people/Suit_Man_Blue_128x128.png" parent="1" vertex="1">
                    <mxGeometry x="-250" y="247.5" width="140" height="120" as="geometry"/>
                </mxCell>
                <mxCell id="5" value="&lt;font style=&quot;font-size: 18px;&quot;&gt;&lt;b&gt;User&lt;/b&gt;&lt;/font&gt;" style="text;html=1;strokeColor=none;fillColor=none;align=center;verticalAlign=middle;whiteSpace=wrap;rounded=0;" parent="1" vertex="1">
                    <mxGeometry x="412.5" y="367.5" width="105" height="40" as="geometry"/>
                </mxCell>
                <mxCell id="6" value="&lt;font face=&quot;Georgia&quot; style=&quot;font-size: 39px;&quot;&gt;&lt;i style=&quot;font-size: 39px;&quot;&gt;&lt;b style=&quot;font-size: 39px;&quot;&gt;RELATIONSHIPS&lt;/b&gt;&lt;/i&gt;&lt;/font&gt;" style="text;html=1;strokeColor=none;fillColor=none;align=center;verticalAlign=middle;whiteSpace=wrap;rounded=0;fontSize=39;" parent="1" vertex="1">
                    <mxGeometry x="170" y="140" width="370" height="30" as="geometry"/>
                </mxCell>
                <mxCell id="7" value="" style="image;html=1;image=img/lib/clip_art/finance/Coins_128x128.png;fontFamily=Georgia;fontSize=26;" parent="1" vertex="1">
                    <mxGeometry x="812.5" y="180" width="90" height="90" as="geometry"/>
                </mxCell>
                <mxCell id="8" value="&lt;span style=&quot;font-size: 18px;&quot;&gt;&lt;b&gt;Saving Account&lt;/b&gt;&lt;/span&gt;" style="text;html=1;strokeColor=none;fillColor=none;align=center;verticalAlign=middle;whiteSpace=wrap;rounded=0;" parent="1" vertex="1">
                    <mxGeometry x="780" y="275" width="155" height="40" as="geometry"/>
                </mxCell>
                <mxCell id="9" value="" style="image;html=1;image=img/lib/clip_art/finance/Credit_Card_128x128.png;fontFamily=Georgia;fontSize=26;" parent="1" vertex="1">
                    <mxGeometry x="792.5" y="340" width="132.5" height="80" as="geometry"/>
                </mxCell>
                <mxCell id="10" value="&lt;span style=&quot;font-size: 18px;&quot;&gt;&lt;b&gt;Credit Account&lt;/b&gt;&lt;/span&gt;" style="text;html=1;strokeColor=none;fillColor=none;align=center;verticalAlign=middle;whiteSpace=wrap;rounded=0;" parent="1" vertex="1">
                    <mxGeometry x="781.25" y="420" width="155" height="40" as="geometry"/>
                </mxCell>
                <mxCell id="11" value="" style="image;html=1;image=img/lib/clip_art/people/Scientist_Man_128x128.png;fontFamily=Georgia;fontSize=26;" parent="1" vertex="1">
                    <mxGeometry x="70" y="230" width="110" height="137.5" as="geometry"/>
                </mxCell>
                <mxCell id="12" value="" style="image;html=1;image=img/lib/clip_art/people/Worker_Black_128x128.png;fontFamily=Georgia;fontSize=26;" parent="1" vertex="1">
                    <mxGeometry x="380" y="230" width="170" height="145" as="geometry"/>
                </mxCell>
                <mxCell id="13" value="&lt;font style=&quot;font-size: 18px;&quot;&gt;&lt;b&gt;Employee&lt;/b&gt;&lt;/font&gt;" style="text;html=1;strokeColor=none;fillColor=none;align=center;verticalAlign=middle;whiteSpace=wrap;rounded=0;" parent="1" vertex="1">
                    <mxGeometry x="72.5" y="360" width="105" height="40" as="geometry"/>
                </mxCell>
                <mxCell id="14" value="&lt;font style=&quot;font-size: 18px;&quot;&gt;&lt;b&gt;Director&lt;/b&gt;&lt;/font&gt;" style="text;html=1;strokeColor=none;fillColor=none;align=center;verticalAlign=middle;whiteSpace=wrap;rounded=0;" parent="1" vertex="1">
                    <mxGeometry x="-232.5" y="377.5" width="105" height="30" as="geometry"/>
                </mxCell>
                <mxCell id="19" value="Relation" style="endArrow=open;html=1;endSize=12;startArrow=diamondThin;startSize=14;startFill=0;edgeStyle=orthogonalEdgeStyle;fontFamily=Georgia;fontSize=26;exitX=0;exitY=0.5;exitDx=0;exitDy=0;entryX=1;entryY=0.25;entryDx=0;entryDy=0;" parent="1" source="7" target="12" edge="1">
                    <mxGeometry relative="1" as="geometry">
                        <mxPoint x="570" y="380" as="sourcePoint"/>
                        <mxPoint x="730" y="380" as="targetPoint"/>
                    </mxGeometry>
                </mxCell>
                <mxCell id="20" value="N" style="edgeLabel;resizable=0;html=1;align=left;verticalAlign=top;fontFamily=Georgia;fontSize=26;" parent="19" connectable="0" vertex="1">
                    <mxGeometry x="-1" relative="1" as="geometry">
                        <mxPoint x="-42" y="-45" as="offset"/>
                    </mxGeometry>
                </mxCell>
                <mxCell id="21" value="1" style="edgeLabel;resizable=0;html=1;align=right;verticalAlign=top;fontFamily=Georgia;fontSize=26;" parent="19" connectable="0" vertex="1">
                    <mxGeometry x="1" relative="1" as="geometry">
                        <mxPoint x="10" y="-46" as="offset"/>
                    </mxGeometry>
                </mxCell>
                <mxCell id="22" value="Relation" style="endArrow=open;html=1;endSize=12;startArrow=diamondThin;startSize=14;startFill=0;edgeStyle=orthogonalEdgeStyle;fontFamily=Georgia;fontSize=26;entryX=1.006;entryY=0.603;entryDx=0;entryDy=0;entryPerimeter=0;" parent="1" source="9" target="12" edge="1">
                    <mxGeometry relative="1" as="geometry">
                        <mxPoint x="680" y="300" as="sourcePoint"/>
                        <mxPoint x="730" y="380" as="targetPoint"/>
                    </mxGeometry>
                </mxCell>
                <mxCell id="23" value="N" style="edgeLabel;resizable=0;html=1;align=left;verticalAlign=top;fontFamily=Georgia;fontSize=26;" parent="22" connectable="0" vertex="1">
                    <mxGeometry x="-1" relative="1" as="geometry">
                        <mxPoint x="-42" as="offset"/>
                    </mxGeometry>
                </mxCell>
                <mxCell id="24" value="1" style="edgeLabel;resizable=0;html=1;align=right;verticalAlign=top;fontFamily=Georgia;fontSize=26;" parent="22" connectable="0" vertex="1">
                    <mxGeometry x="1" relative="1" as="geometry">
                        <mxPoint x="9" as="offset"/>
                    </mxGeometry>
                </mxCell>
                <mxCell id="28" value="Relation" style="endArrow=open;html=1;endSize=12;startArrow=diamondThin;startSize=14;startFill=0;edgeStyle=orthogonalEdgeStyle;fontFamily=Georgia;fontSize=26;" parent="1" target="11" edge="1">
                    <mxGeometry relative="1" as="geometry">
                        <mxPoint x="370" y="299" as="sourcePoint"/>
                        <mxPoint x="510" y="340" as="targetPoint"/>
                    </mxGeometry>
                </mxCell>
                <mxCell id="29" value="N" style="edgeLabel;resizable=0;html=1;align=left;verticalAlign=top;fontFamily=Georgia;fontSize=26;" parent="28" connectable="0" vertex="1">
                    <mxGeometry x="-1" relative="1" as="geometry">
                        <mxPoint x="-20" y="1" as="offset"/>
                    </mxGeometry>
                </mxCell>
                <mxCell id="30" value="1" style="edgeLabel;resizable=0;html=1;align=right;verticalAlign=top;fontFamily=Georgia;fontSize=26;" parent="28" connectable="0" vertex="1">
                    <mxGeometry x="1" relative="1" as="geometry">
                        <mxPoint x="20" y="1" as="offset"/>
                    </mxGeometry>
                </mxCell>
                <mxCell id="37" value="Relation" style="endArrow=open;html=1;endSize=12;startArrow=diamondThin;startSize=14;startFill=0;edgeStyle=orthogonalEdgeStyle;fontFamily=Georgia;fontSize=26;entryX=1;entryY=0.5;entryDx=0;entryDy=0;exitX=-0.021;exitY=0.59;exitDx=0;exitDy=0;exitPerimeter=0;" parent="1" source="11" target="3" edge="1">
                    <mxGeometry relative="1" as="geometry">
                        <mxPoint x="120" y="480" as="sourcePoint"/>
                        <mxPoint x="210" y="328.7058823529412" as="targetPoint"/>
                    </mxGeometry>
                </mxCell>
                <mxCell id="38" value="N" style="edgeLabel;resizable=0;html=1;align=left;verticalAlign=top;fontFamily=Georgia;fontSize=26;" parent="37" connectable="0" vertex="1">
                    <mxGeometry x="-1" relative="1" as="geometry">
                        <mxPoint x="-20" y="1" as="offset"/>
                    </mxGeometry>
                </mxCell>
                <mxCell id="39" value="1" style="edgeLabel;resizable=0;html=1;align=right;verticalAlign=top;fontFamily=Georgia;fontSize=26;" parent="37" connectable="0" vertex="1">
                    <mxGeometry x="1" relative="1" as="geometry">
                        <mxPoint x="20" y="1" as="offset"/>
                    </mxGeometry>
                </mxCell>
                <mxCell id="40" style="edgeStyle=none;html=1;exitX=0.75;exitY=0;exitDx=0;exitDy=0;entryX=0.75;entryY=1;entryDx=0;entryDy=0;fontFamily=Georgia;fontSize=39;" parent="1" source="6" target="6" edge="1">
                    <mxGeometry relative="1" as="geometry"/>
                </mxCell>
            </root>
        </mxGraphModel>
    </diagram>
</mxfile>